<?xml version="1.0" encoding="utf-8"?>
<!-- Generator: Adobe Illustrator 22.0.1, SVG Export Plug-In . SVG Version: 6.00 Build 0)  -->
<svg version="1.1" id="svg4419" xmlns:svg="http://www.w3.org/2000/svg"
	 xmlns="http://www.w3.org/2000/svg" xmlns:xlink="http://www.w3.org/1999/xlink" x="0px" y="0px" viewBox="0 0 300 300"
	 style="enable-background:new 0 0 300 300;" xml:space="preserve">
<style type="text/css">
	.st0{fill:#0071C5;}
</style>
<path id="path4423" class="st0" d="M88.8,135.1v48.1H73.5v-60.5l31.6,0c13.4,0,18,9.5,18,18.1v42.4h-15.3v-42.3
	c0-3.6-1.9-5.8-6.4-5.8L88.8,135.1L88.8,135.1z M193,134.4c-5.2,0-9.3,2.7-11,6.3c-1,2.2-1.3,3.9-1.5,6.6h23.6
	C203.8,140.7,200.8,134.4,193,134.4 M180.5,157.7c0,7.8,4.9,13.6,13.6,13.6c6.8,0,10.1-1.9,14-5.8l9.5,9c-6.1,6-12.4,9.6-23.6,9.6
	c-14.7,0-28.7-8-28.7-31.3c0-19.9,12.3-31.2,28.4-31.2c16.3,0,25.7,13.2,25.7,30.5v5.5H180.5 M152.3,183.1
	c-12.5,0-17.8-8.7-17.8-17.3v-59.6h15.3v16.5h11.5v12.4h-11.5v29.8c0,3.5,1.7,5.5,5.3,5.5h6.2v12.8L152.3,183.1 M59.9,114.4H44.4
	V99.7h15.4C59.9,99.7,59.9,114.4,59.9,114.4z M59.9,183.9c-11.6-1.1-15.5-8.1-15.5-16.2l0-44.9h15.5L59.9,183.9L59.9,183.9z
	 M243.7,182.6c-11.5-1.1-15.4-8.1-15.4-16.2V97.6h15.4V182.6z M297.7,107.6C283.7,39.4,151.3,35,66,87v5.7
	c85.3-43.8,206.2-43.6,217.2,19.3c3.7,20.8-8,42.4-28.9,54.9v16.3C279.4,174,305.2,144.1,297.7,107.6 M142.6,226.9
	c-58.9,5.4-120.3-3.1-128.9-49.1c-4.2-22.7,6.1-46.7,19.8-61.7v-8c-24.7,21.6-38.1,49-30.4,81.4c9.8,41.5,62.5,65,142.9,57.2
	c31.8-3.1,73.4-13.3,102.4-29.2V195C222.2,210.6,178.8,223.6,142.6,226.9"/>
<path id="path4425" class="st0" d="M261.6,102.2c0-0.7-0.4-1-1.4-1h-1v2.1c0.1,0,0.8,0,1,0c1,0,1.4-0.3,1.4-1V102.2L261.6,102.2z
	 M263.1,107.5h-1.1c-0.1,0-0.2-0.1-0.2-0.2l-1.6-2.6c0-0.1-0.2-0.1-0.2-0.1h-0.7v2.6c0,0.1-0.1,0.3-0.3,0.3h-1
	c-0.1,0-0.3-0.2-0.3-0.3v-6.6c0-0.4,0.1-0.5,0.5-0.6c0.4,0,1.4-0.1,1.9-0.1c1.9,0,3,0.6,3,2.3v0.1c0,1.1-0.5,1.7-1.4,2l1.6,2.7
	c0,0.1,0,0.1,0,0.2C263.3,107.3,263.2,107.5,263.1,107.5 M260.4,98.7c-2.8,0-5.1,2.3-5.1,5.1c0,2.8,2.3,5.1,5.1,5.1
	c2.8,0,5.1-2.3,5.1-5.1C265.4,101,263.2,98.7,260.4,98.7 M260.4,109.9c-3.4,0-6.1-2.8-6.1-6.1c0-3.4,2.7-6.1,6.1-6.1
	c3.4,0,6.2,2.8,6.2,6.1C266.5,107.2,263.7,109.9,260.4,109.9"/>
</svg>
